/* XPM */
static char *d6qnag9_b4894666_ffb5_4f1a_b398_2629e0d1ef7e_removebg_preview__1_1738770436[] = {
/* columns rows colors chars-per-pixel */
"50 50 141 2 ",
"   c #090603",
".  c #0D0A05",
"X  c #0D0C09",
"o  c #140D06",
"O  c #130D09",
"+  c #15110B",
"@  c #1A140D",
"#  c #1F190F",
"$  c #161411",
"%  c #1A1512",
"&  c #171811",
"*  c #1D1A14",
"=  c #1E1D18",
"-  c #231E0E",
";  c #231D13",
":  c #221D19",
">  c #281F18",
",  c #252014",
"<  c #282215",
"1  c #25221C",
"2  c #29251D",
"3  c #2D2A1E",
"4  c #332E1E",
"5  c #37301F",
"6  c #272320",
"7  c #2A2622",
"8  c #2E2A24",
"9  c #2F2E2A",
"0  c #322E24",
"q  c #332E29",
"w  c #353126",
"e  c #3C3523",
"r  c #3F3826",
"t  c #35322B",
"y  c #3A352C",
"u  c #3D392D",
"i  c #373631",
"p  c #3B3631",
"a  c #3C3A33",
"s  c #413A27",
"d  c #423B2D",
"f  c #433E33",
"g  c #413E39",
"h  c #3E4033",
"j  c #47422F",
"k  c #48412F",
"l  c #454134",
"z  c #4C4434",
"x  c #4F4836",
"c  c #44423A",
"v  c #4B453B",
"b  c #474838",
"n  c #4D4A3B",
"m  c #514937",
"M  c #524B3B",
"N  c #584F3E",
"B  c #53503D",
"V  c #59503F",
"C  c #4A4742",
"Z  c #4D4B42",
"A  c #524E42",
"S  c #534E4A",
"D  c #4F5043",
"F  c #535144",
"G  c #5A5345",
"H  c #5F5847",
"J  c #55544A",
"K  c #5B564B",
"L  c #5C594C",
"P  c #595550",
"I  c #5D5C52",
"U  c #605947",
"Y  c #625B4C",
"T  c #635E53",
"R  c #655F5A",
"E  c #5F6054",
"W  c #65614E",
"Q  c #656253",
"!  c #6A6354",
"~  c #6A6856",
"^  c #656459",
"/  c #6A665A",
"(  c #67685C",
")  c #6C6A5C",
"_  c #726C5D",
"`  c #72715F",
"'  c #6A6760",
"]  c #6E6C61",
"[  c #726E63",
"{  c #6F7062",
"}  c #757364",
"|  c #797665",
" . c #7A7966",
".. c #76746C",
"X. c #7A766A",
"o. c #7B7A6A",
"O. c #797571",
"+. c #7D7D71",
"@. c #807D6C",
"#. c #827E73",
"$. c #82816D",
"%. c #848374",
"&. c #888576",
"*. c #8B8A76",
"=. c #85857A",
"-. c #8A877B",
";. c #8C8B7C",
":. c #91907D",
">. c #8C8781",
",. c #8F8D81",
"<. c #928D83",
"1. c #8F9080",
"2. c #949284",
"3. c #989486",
"4. c #9B9A87",
"5. c #949489",
"6. c #99968A",
"7. c #9C9B8D",
"8. c #9E9E93",
"9. c #A09C8E",
"0. c #A19E91",
"q. c #A3A28F",
"w. c #A4A394",
"e. c #A9A696",
"r. c #ABAA97",
"t. c #A5A59A",
"y. c #ADAC9E",
"u. c #B1AD9F",
"i. c #AEAEA2",
"p. c #B4B3A5",
"a. c #BBB8A7",
"s. c #B5B6A8",
"d. c #B9B7A8",
"f. c #BCBBAD",
"g. c #C4C4B4",
"h. c #C8C6B7",
"j. c #C6C8B7",
"k. c #C7C8BA",
"l. c #CFCDB9",
"z. c #D8D5C1",
"x. c None",
/* pixels */
"x.x.x.x.x.x.x.x.x.x.x.x.x.x.x.x.x.x.x.x.L o.a.l.l.u.r.4.3.#.x.x.x.x.x.x.x.x.x.x.x.x.x.x.x.x.x.x.x.x.",
"x.x.x.x.x.x.x.x.x.x.x.x.x.x.x.x.x.x.J L ;.e.$.@.@.` ~ 4.u.X./ x.x.x.x.x.x.x.x.x.x.x.x.x.x.x.x.x.x.x.",
"x.x.x.x.x.x.x.x.x.x.x.x.x.x.x.x.n =.p.^ @. .o.} ` ` ~ ! ) | f.s.w.=.x.x.x.x.x.x.x.x.x.x.x.x.x.x.x.x.",
"x.x.x.x.x.x.x.x.x.x.x.x.x.x.x.Q 5.p.q.o.~ o. .} @.` _ ~ L ) w.o.=.5.{ x.x.x.x.x.x.x.x.x.x.x.x.x.x.x.",
"x.x.x.x.x.x.x.x.x.x.x.x.x.x.D y.w.$. .:.W Q } o.o.) ^ E b 7.-.} o.o.+.x.x.x.x.x.x.x.x.x.x.x.x.x.x.x.",
"x.x.x.x.x.x.x.x.x.x.x.x.x.=.~ *.$.` ` ;.` b ( I P P P J l 1.{ | +.} B +.x.x.x.x.x.x.x.x.x.x.x.x.x.x.",
"x.x.x.x.x.x.x.x.x.x.x.x.;.j.$.U @. .} } 1.b h = & = 9 b F 8.+.) } Q ~ w.5.x.x.x.x.x.x.x.x.x.x.x.x.x.",
"x.x.x.x.x.x.x.x.x.x.x.( q.;. .m _ ` ^ J b * & X X & & * 9 I { { ` F :.%.6.+.x.x.x.x.x.x.x.x.x.x.x.x.",
"x.x.x.x.x.x.x.x.x.x.F 2.&.` ` Q J ' C 6 O % % : $ 6 1 : 1 1 h L ~ %.-.} o.5.( x.x.x.x.x.x.x.x.x.x.x.",
"x.x.x.x.x.x.x.x.x.x.&.4.} } | ( A t : % : 7 q 8 1 a y t t 7 8 8 A <.+.} o.o.5.x.x.x.x.x.x.x.x.x.x.x.",
"x.x.x.x.x.x.x.x.x.h %.o.] ..] ( p % : 6 t p f f 8 F b v v a u 2 8 I ] [ { ( 1.( x.x.x.x.x.x.x.x.x.x.",
"x.x.x.x.x.x.x.x.x.{ c Q ' ] ' a % : 8 p v C C v t I G J J A Z a 7 t T ( ) E Q D x.x.x.x.x.x.x.x.x.x.",
"x.x.x.x.x.x.x.x.{ p.` b L I J = * 8 p C G K Y J s _ Y T ) L R A a q g ^ I K 2.7.^ x.x.x.x.x.x.x.x.x.",
"x.x.x.x.x.x.x.x.%.2.4.:.D Z 1 = 6 i C K Y T R Y d ` ! T _ ! [ J c p 2 g L w.q.&.;.x.x.x.x.x.x.x.x.x.",
"x.x.x.x.x.x.x.x.6.}  .r.%.7 & 2 0 f A T Y T R T d / / ! _ ! [ T A v 8 6 P ;. .*.;.x.x.x.x.x.x.x.x.x.",
"x.x.x.x.x.x.x.x.2.} `  .) = = 8 t v K T Y T / T d [ ! ! ! T _ R L A y 1 h } .. .w.} x.x.x.x.x.x.x.x.",
"x.x.x.x.x.x.x.8.9.| | o.p % 2 p f A T ! ! ! / Y d ! T ! ! Y @.Y Y T g 8 : T o.) 7.+.x.x.x.x.x.x.x.x.",
"x.x.x.x.x.x.x.O.;._ ~ ( t % q g v G Y ! ! ! _ Y d ! ! ! _ Y @.Y Y ^ Z t 1 J ( Q o.7.x.x.x.x.x.x.x.x.",
"x.x.x.x.x.x.x.' F Y T P > 1 y C A U W W ! Y ! Y f ! Y R ! U Y Y L ! A a % c I G F o.x.x.x.x.x.x.x.x.",
"x.x.x.x.x.x.x.7.o.l l p % 7 g J H U Y ! / T Y Y f ! G Y @.Y ! Y H ^ S g % 2 a ( r.7.F x.x.x.x.x.x.x.",
"x.x.x.x.x.x.t.%.2.w.T 8 % 9 g K G G Y H / Y Y R f R K S ! G Y G H T C a * 2 / i.7.*.E x.x.x.x.x.x.x.",
"x.x.x.x.x.x.f.o.+.&.+.1 6 C R O.@.X.[ [ @.[ ' P d R R ' @._ ! @.X...^ S q 7 ' ;.} | Q x.x.x.x.x.x.x.",
"x.x.x.x.x.x.f.| ..} J 6 q S O.,.<.<.#.@.#.@.R g q R P @.#.#.@.<.<.>.O.P p * ( =.} ..Q x.x.x.x.x.x.x.",
"x.x.x.x.x.x.k.o.o.o.E * X 6 R 8 ; : t P 8 ; O . > 7 @ % > M f > : % C p O   ] #.] } E x.x.x.x.x.x.x.",
"x.x.x.x.x.x.k.} Q ^ I &   = A 6 + o : C 6 O O o > 7 @ O % g q @ % % g 6     ] -.( ] J x.x.x.x.x.x.x.",
"x.x.x.x.x.x.s.Q ~ Q D * X + # # ; ; ; > > > > > > q > > > > # # ; % $ O X   ) =.) P Z x.x.x.x.x.x.x.",
"x.x.x.x.x.x.| n F b a 2 8 u l z z m f M g f f d > M g g f f g A M z d q 6 + A G n c h x.x.x.x.x.x.x.",
"x.x.x.x.x.x.&.:.:.,.K q l F G Y U U H Y Y U G M q R H V ! G Y Y H U A f q % S <.*.:.' x.x.x.x.x.x.x.",
"x.x.x.x.x.x.j.3.2.3.T y f G ! ! Y Y Y Y Y R ! V 5 @.! Y _ U ! U Y ! G Z t = ) t.:.2.} x.x.x.x.x.x.x.",
"x.x.x.x.x.x.g. ._ [ P y g G H Y Y Y R Y ! Y Y V d R Y Y ! U ! Y U Y N x 0 , ] +.( | ( x.x.x.x.x.x.x.",
"x.x.x.x.x.x.u.` [ / P s f G H ! Y Y ! Y ! Y Y N d Y U Y _ U ! U Y W M n 0 = ] ,.} } ^ x.x.x.x.x.x.x.",
"x.x.x.x.x.x.a.) Y R R d f G Y Y Y U ! Y R Y Y S f Y V Y ! U ! U L W A v 0 * { 2.~ ~ P x.x.x.x.x.x.x.",
"x.x.x.x.x.x.p.W W ) ^ w h G Y W U Y Y Y ! Y Y N d Y G H ! Y ! H H R M A 0 * ( &.Q T L x.x.x.x.x.x.x.",
"x.x.x.x.x.x.:.B B E n w u B H Y U U Y U ! Y Y G d T N Y ! H Y Y H Y A C 0 * S Q F b D x.x.x.x.x.x.x.",
"x.x.x.x.x.x.Q ~ ~ ^ b 0 t f z n A A A A V G N g q K C N H f A A A C d f 7 * n ) ~ ~ J x.x.x.x.x.x.x.",
"x.x.x.x.x.x.g.q.r.8.I D X.-.6.7.0.9.3.#.@./ _ K 7 R _ ' @.#.<.6.0.6.>.O.P i [ e.q.w.{ x.x.x.x.x.x.x.",
"x.x.x.x.x.x.f. .| ] P a C P ^ ' R R T R A v g y q R g g C P R T T R R S y : [ &.~ } I x.x.x.x.x.x.x.",
"x.x.x.x.x.x.d. .} ..I : + q O.8 ; > q ' 7 % % . > q % % > P A > : + T c + X [ -.| o.I x.x.x.x.x.x.x.",
"x.x.x.x.x.x.f.$.) ^ P %   o q : @ o @ w : + @ o @ > @ o @ q ; o o @ 0 ;     / =.} ) D x.x.x.x.x.x.x.",
"x.x.x.x.x.x.i.{ ) ( K ; + @ ; ; - - > > - > > ; o > > > > ; - < > - ; o O X / =.Q E J x.x.x.x.x.x.x.",
"x.x.x.x.x.x.s.E L E b 2 3 5 r d s s d s s s d e # y d u s 5 s s s d 4 w 1 @ Q o.E F Z x.x.x.x.x.x.x.",
"x.x.x.x.x.x.J D Z B u w w c l x m m f f f m M f ; n n x m k m m z m f u 3 ; c A F b c x.x.x.x.x.x.x.",
"x.x.x.x.x.x.t.8.8.w.( w y f m A z m M M N m m f < A x x N z m m z M z l 3 , ^ w.3.7.( x.x.x.x.x.x.x.",
"x.x.x.x.x.x.8.^ E E J w e f x N f m m M A m z m < A x m B m m m z m c j 8 , ^ o.L L Z x.x.x.x.x.x.x.",
"x.x.x.x.x.x.5.P J I A t t f m N z m m m m m m z > M M z M m N m z m z d 0 , E } L J c x.x.x.x.x.x.x.",
"x.x.x.x.x.x.=.J b Z v 0 w f z M k m N z z m z m ; m M z m k m m z m z f 3 , E ) I J a x.x.x.x.x.x.x.",
"x.x.x.x.x.x.=.Z b c g 0 q d z N m z m k d z z z ; x x z z s N m k N z u 3 < E R c v i x.x.x.x.x.x.x.",
"x.x.x.x.x.x.=.h a a p 4 0 d z N m z m z d z f f ; z z z k s m z z B j d 4 = K J y a t x.x.x.x.x.x.x.",
"x.x.x.x.x.x.D y 9 i t 0 0 h j V m z k k s m k s - s k z d s z k k V k d w , c c t t 9 x.x.x.x.x.x.x.",
"x.x.x.x.x.x.a t t a i 3 3 5 e j 5 e s 5 5 s s 5 @ 4 e s s 5 e e s d 5 4 < , t q t t 9 x.x.x.x.x.x.x."
};
