/* XPM */
static char *ruby_red_gulfstone_quartz_30cm_x_30cm_wall_floor_tile_p2563_7509_image__1_1738770445[] = {
/* columns rows colors chars-per-pixel */
"50 50 189 2 ",
"   c #5A030B",
".  c #5F000A",
"X  c #59030C",
"o  c #5F020C",
"O  c #5E030C",
"+  c #5F030E",
"@  c #5A040D",
"#  c #5B050E",
"$  c #5A070F",
"%  c #5E040D",
"&  c #5F040D",
"*  c #5C050E",
"=  c #5E040E",
"-  c #5F050E",
";  c #5F050F",
":  c #5D060E",
">  c #5C060F",
",  c #5D060F",
"<  c #5E070F",
"1  c #5D0710",
"2  c #5E0710",
"3  c #5B0810",
"4  c #5C0911",
"5  c #5F0810",
"6  c #5E0811",
"7  c #5F0811",
"8  c #5F0912",
"9  c #5D0A12",
"0  c #5E0B13",
"q  c #5D0C13",
"w  c #5F0C14",
"e  c #5F0E15",
"r  c #60000B",
"t  c #60030D",
"y  c #62020D",
"u  c #63030E",
"i  c #61040E",
"p  c #60050E",
"a  c #60040F",
"s  c #61040F",
"d  c #62050F",
"f  c #60060F",
"g  c #61060F",
"h  c #64040F",
"j  c #65040F",
"k  c #610510",
"l  c #620510",
"z  c #600610",
"x  c #610710",
"c  c #610711",
"v  c #630610",
"b  c #620710",
"n  c #620611",
"m  c #630611",
"M  c #630712",
"N  c #650510",
"B  c #660510",
"V  c #640711",
"C  c #660611",
"Z  c #640712",
"A  c #670712",
"S  c #680712",
"D  c #600911",
"F  c #620811",
"G  c #630811",
"H  c #600912",
"J  c #620812",
"K  c #630912",
"L  c #630913",
"P  c #600A13",
"I  c #610A13",
"U  c #620B13",
"Y  c #650812",
"T  c #640912",
"R  c #640813",
"E  c #650813",
"W  c #660913",
"Q  c #640A13",
"!  c #650A13",
"~  c #610B14",
"^  c #620B14",
"/  c #650914",
"(  c #660914",
")  c #640A14",
"_  c #650B14",
"`  c #650B15",
"'  c #670A14",
"]  c #660B14",
"[  c #660A15",
"{  c #670A15",
"}  c #670B16",
"|  c #600D15",
" . c #630C14",
".. c #620C15",
"X. c #630C15",
"o. c #630D16",
"O. c #610E16",
"+. c #640D15",
"@. c #660C15",
"#. c #670C15",
"$. c #640D16",
"%. c #660C16",
"&. c #670D16",
"*. c #670D17",
"=. c #650E16",
"-. c #640E17",
";. c #650E17",
":. c #660F17",
">. c #680813",
",. c #690813",
"<. c #690914",
"1. c #6A0914",
"2. c #680B15",
"3. c #6A0A15",
"4. c #6B0A15",
"5. c #680B16",
"6. c #6B0B16",
"7. c #6C0B16",
"8. c #690C16",
"9. c #680D16",
"0. c #680C17",
"q. c #690C17",
"w. c #6A0D17",
"e. c #680E17",
"r. c #690E17",
"t. c #6C0C17",
"y. c #650F18",
"u. c #660F18",
"i. c #690D18",
"p. c #6A0D18",
"a. c #680E18",
"s. c #690F18",
"d. c #690F19",
"f. c #6B0E18",
"g. c #6A0F18",
"h. c #6A0E19",
"j. c #6B0E19",
"k. c #6B0F1A",
"l. c #6D0D18",
"z. c #6D0D19",
"x. c #6E0D18",
"c. c #6C0F19",
"v. c #6E0E19",
"b. c #6F0E19",
"n. c #6C0F1A",
"m. c #6E0E1A",
"M. c #6F0F1A",
"N. c #631219",
"B. c #641119",
"V. c #661019",
"C. c #671019",
"Z. c #6A1019",
"A. c #68111A",
"S. c #6B111A",
"D. c #6B111B",
"F. c #6A131B",
"G. c #6D101A",
"H. c #6C111A",
"J. c #6D101B",
"K. c #6E111B",
"L. c #6C121B",
"P. c #6A131C",
"I. c #6E111C",
"U. c #6F121C",
"Y. c #6F121D",
"T. c #6B141C",
"R. c #6C151D",
"E. c #6E141D",
"W. c #6E141E",
"Q. c #6F151F",
"!. c #70101B",
"~. c #71101B",
"^. c #71111C",
"/. c #72121D",
"(. c #73131E",
"). c #74131E",
"_. c #74141F",
"`. c #75141F",
"'. c #6E1720",
"]. c #711721",
"[. c #751520",
"{. c #761621",
"}. c #771722",
"|. c #701921",
" X c #701922",
".X c #721822",
"XX c #731923",
"oX c #751924",
"OX c #781823",
/* pixels */
"!.(._.(.t.6.6.v.(.v.6.t.v.(.t.6.v.v.v.(.(.(.(.v.v.v.(.v.(.v.(.v._.!.t.!._._.!.t.t.!._.!.!.!._.OXt.t.",
"v.(.(.(.6.6.6.v.(.v.t.v.v.v.v.6.6.6.>.6.v.v.t.6.t.v.v.v.v.v.v.t.t.t.t.t.!.!.!.t.!.!.!.!.t.t.!._.!.t.",
"v.!.(.v.6.6.6.t.v.v.6.v.!.v.v.v.v.t.6.v.(.(.(.v.6.t.v.t.v.t.t.6.>.>.t.!.!.!.!._.!.(.!.t.>.t.t._.!.!.",
"v.v.v.t.t.6.6.6.t.t.t.v.v.(.(.v.[.(.v.(._.[._.(.v.t.v.v.v.v.t.6.h >.!.!.t.t.t.!.t.t.!.!.t.t.t.>.!.!.",
"v.t.t.t.v.t.t.6.6.t.v.v.v.v.v.!.(.v.6.t.v.(.(.!.!.!.!.v.v.v.t.t.>.t.(.!.t.>.t.!.>.t.!._.!.!.>.h t.t.",
"v.v.t.6.v.v.v.t.t.v.v.v.v.v.v.(._.!.v.t.!.(._.(.(.!.(.(.(.v.v.t.t.!.!.!.t.t.>.t.>.t.t._._.!.>.h t.>.",
"(.v.t.v.v.(.!.v.t.v.!.(.t.6.v.v.[.(.v.t.(._.[.[.v.(.(.v.v.v.6.6.t.t.t.!.!.(.!.t.t.t.t.t.!._.t.>.>.t.",
"(.v.t.v.(.(.!.v.v.!.(.v.6.6.t.v.v.6.A A >.6.v.v.v.v.v.v.v.6.>.A !.t.>.!._._.!.!.!.t.>.>.!.!._.!.>.t.",
"6.t.v.(.(.v.t.6.v.t.t.!.v.6.A 6.t.v.v.v.v.v.v.t.6.t.v.v.!.!.v.!.h t.t.>.!._._.>.t.t.7.>.>.7.t.t.!.!.",
"v.t.v.6.t.t.v.v.!.6.t.!.v.6.>.t.t.6.v.v.v.6.6.6.6.v.v.!.v.!.v.v.h >.t.t.!._._.>.M.t.t.4.2.t.t.M.(.!.",
"v.v.6.A >.6.v.v.v.6.6.!.!.6.6.t.t.t.t.t.6.6.A A v.v.v.v.v.v.v.6.>.4.t.t.!._.!.t.!.t.t.t.t.t.t.!.OXOX",
"v.6.6.>.>.6.t.t.v.6.6.!.v.6.>.t.t.v.v.t.6.6.6.>.v.!.(.v.v.v.t.6.>.>.>.t.!.!.!.t.!.!.t.t.t.t.!.!.OXOX",
">.6.t.v.t.t.6.>.v.>.6.v.!.6.6.v.v.v.!.v.v.v.6.6.v.!.!.!.!.v.t.6.t.>.>.t.!.!.!.t.!.!.t.t.t.t.!.!.v.t.",
"A 6.v.v.v.v.6.A 6.6.6.v.!.6.6.!.v.t.v.!.!.v.v.t.v.v.v.!.v.v.v.t.!.8.>.b.!.t.t.t.!.t.t.t.t.t.t.!.t.t.",
"6.t.v.v.v.t.v.6.6.>.6.(.!.t.6.v.A 6.v.t.v.!.v.v.v.t.v.v.v.v.v.v.!.>.>.t.!.t.t.M.M.t.t.>.2.t.t.M.!.!.",
"(.v.t.6.6.v.v.(.6.>.>.v.!.t.t.!.h A 6.6.v.v.v.v.6.t.v.v.!.(.v.v./.>.S t.!.t.t.!.t.t.t.>.>.7.t.t.v.t.",
"[.(.v.v.v.~.v.v.(.6.A A 6.6.A u (.v.v.(._._.t.u . u 6.v.v.v.6.>.c.c.c.c.c.8.c.c.8.2.2.V W 2.8.K.[.[.",
"v.v.A S 6.6.7.6.v.6.6.6.6.6.A u v.(.(.v.v.6.6.6.6.6.6.t.t.6.6.>.8.8.8.8.c.8.8.c.K.c.2.2.2.2.c.K.3.t.",
"v.v.7.6.v.v.v.v.A 6.6.6.A A 6.6.t.!.!.t.A u 6.v.v.v.6.6.6.6.6.6.8.c.c.8.8.8.c.8.c.c.2.2.W 2.2.c.3.t.",
"v.v.p.7.(.(.(.v.l A 6.6.A A 6.~.t.v.v.v.>.A 6.v.>.6.6.t.v.K.v.v.8.8.2.8.8.8.2.8.2.2.W V W V W 2.M.M.",
"6.A A A 6.v.6.6.h S 7.6.S A 6.v.v.6.t.v.(.(.t.A A 6.v.v.~.!.v.6.2.2.8.8.8.8.8.2.2.8.2.2.2.2.2.8.v.z.",
"6.S 6.6.v.v.p.6.A A 6.6.S 6.6.v.v.6.6.v._.(.6.u >.v.v.(.!.7.A u 2.2.2.2.2.2.2.2.c.c.8.c.c.K.K.K.>.>.",
"v.6.v.v.(.~.6.6.6.A A A 6.p.6.6.6.>.6.t.v.v.6.6.6.v.v.v.6.6.h u 2.2.2.2.2.2.2.2.W ! 8.c.K.K.K.K.A A ",
"6.6.6.6.6.6.A u v.A A A 6.7.6.A A 6.t.6.A h 6.v.6.>.6.A >.S 6.6.2.W 2.W 2.2.2.2.. s V W 2.8.8.c.z.z.",
"p.7.6.6.6.6.6.6.u A 6.v.v.v.6.S M.v.t.6.v.v.6.A t.v.t.6.A A 6.v.W V W 2.2.2.8.8.8.8.h W 8.8.8.8.M.M.",
"S 6.6.6.6.6.6.6.A A 6.v.v.6.A u v.6.6.6.6.6.6.A t.A A A 6.v.t.6.8.2.8.2.2.2.2.2.8.W W h W 8.p.8.N N ",
"A A A 6.p.v.v.(.A 6.6.v.6.A l u v.6.>.>.6.6.A A 6.h r A v.(.v.A c.c.c.8.8.2.2.2.8.W W D 8.8.8.8.A A ",
"A 6.S 6.7.6.v.v.6.6.6.v.t.6.S A 6.6.>.A 6.6.6.6.A h u >.K.!.6.A c.c.c.c.8.c.2.2.W W W W 8.8.8.8.z.7.",
"6.7.6.6.7.6.6.6.A 6.6.v.v.v.v.t.6.6.6.6.v.v.6.6.A 6.6.v.7.6.S A 2.8.8.c.8.c.c.c.W W V W p.K.8.8.7.6.",
"v.7.p.6.6.6.6.6.6.6.t.v.v.(.v.v.v.6.6.6.v.v.v.6.A v.v.v.6.S 6.6.2.2.2.8.8.c.c.K.W s W W p.p.8.8.v.z.",
"6.6.6.6.6.6.6.6.6.6.6.v.v.6.v.v.6.A A 6.v.v.6.6.v.v.6.6.v.v.v.v.2.2.2.2.2.8.8.8.V s s 2.K.K.8.6.v.v.",
"A A S 6.6.v.v.v.v.v.v.6.6.6.A A 6.A A A 6.v.6.6.(.6.u A (.[.(.v.8.8.2.2.2.2.V W s s V 2.p.v.p.] 3.6.",
"S A S 7._._.!.7.4.4.4.4.4.4.4.>.c.c.t.c.c.K.K.K.2.W s W 2.2.2.V c.8.W 8.k.M.M.k.t.0.k.k.k.k.k.t.z.M.",
"A h h 7.b.t.4.B 4.4.4.4.4.4.4.t.8.8.8.c.c.c.c.c.8.2.W 2.8.8.2.W 8.2.] ] k.k.k.[ [ [ [ >.Z Z l l *.*.",
"A A S 6.7.7.>.h 4.7.>.t.>.t.>.t.2.2.2.2.2.8.8.c.K.8.2.2.c.8.2.V t.>.W ] t.[ [ Z k.k.k.5.5.c Z l M.p.",
"7.v.7.v.K.t.>.>.4.>.t.>.t.>.t.>.W W 2.2.2.2.8.8.K.c.2.2.8.2.! V h.] ] >.[ [ >.Z I.M.k.[ [ [ l >.oX].",
"v.(.K.v.t.t.8.t.>.t.>.t.>.t.>.t.W W W 2.2.2.2.2.c.2.2.W W 2.V t h.p.[ [ t.*.[ c [ [ >.l l 1 l 1 .X'.",
"6.6.6.6.>.A >.>.t.>.t.>.t.>.t.>.W W >.! 2.2.8.8.8.2.W V W W V s h.*.[ *.*.*.[ [ *.*.c l l [ 5.5.y.-.",
"s W 6.W s s h >.2.2.2.2.2.2.2.2.2.2.2.2.2.8.Z.8.8.2.W W 2.8.2.W *.>.c c [ *.*.*.*.*.[ [ *.h.'.[.1 1 ",
"s W W W s s V 8.2.2.2.2.2.2.2.2.2.2.2.8.8.8.t.8.8.2.W 2.8.c.8.2.c 1 1 c [ *.c c l 1 1 2 / k.'.'.8 w ",
"b 8.8.W ! Z.Z.! s s W Z.! & & ! 2.2.8.t.Z.8.2.2.c.8.W 8.E.!.! & l | L w 1 1 w -.d.o.1 3 1 o.c 8 w w ",
"! Z.Z.D W ! 8.b ! ! Z.F.8.b b Z.8.8.8.8.8.8.8.2.K.! h V 8.Z.2.s D L L L 1 1 c -.d.c 1 8 c c c 1 w w ",
"Z.Z.Z.! b ! D - Z.! :.Z.:.b b Z.c.2.! W W 2.2.c.K.W t t V >.W W l L L w 1 l c L w c c 8 L L 8 1 L L ",
"! Z.:.W D ! ! - Z.! W ! U & & ! c.8.W V V W 8.c.8.2.b s W W >.D 1 w w L L w c 1 8 8 o.o.-.L 1 1 y.y.",
"b ! =.b D =.! D Z.W b :.2.b < ! 8.8.W V V W 8.c.2.W 2.2.8.8.W b D w L w w w 8 1 3 1 L o.L w 1 1 *.y.",
"- U D b b ! 8.W :.U ! E.E.Z.! ! Z.! W V V W 2.8.W W 8.8.8.8.l s L 4 4 L -.L 8 3 1 8 w w w w L L l >.",
"< =.! D < U U < U b U R.|.F.:.=.! W W 2.W W ! W W ! 2.W W l l l w 3 1 L *.-.1 3 3 1 L w 1 1 w y.l 1 ",
"U :.:.< < 0 <   <   < F.|.F.! b W W ! ! ! ! b W ! ! b s + s D L 1 3 w L y.y.8 X 1 c L 1 3 1 L P.c l ",
"=.=.D l L L ] y.p.c 1 c y.] ] *.P.y.L L -.d.L 3 3 c o.o.c 8 1 8 | w w B.-.3 3 L w | L L L w l L L L ",
"=.] ] l L L ] ] y.l 1 >.p.c L y.d.o.8 w -.B.L w 3 w o.o.L 1 1 w w w w N.e 3 3 -.L L L L L l l 1 L | "
};
