/* XPM */
static char *mini_viper_by_maarane_de3qxxj_fullview_removebg_preview__1_1738770414[] = {
/* columns rows colors chars-per-pixel */
"50 50 175 2 ",
"   c #1F0F0E",
".  c #1C120E",
"X  c #161414",
"o  c #1A1514",
"O  c #141A16",
"+  c #1C1A17",
"@  c #181618",
"#  c #151A19",
"$  c #1C1C1B",
"%  c #20110E",
"&  c #211E0E",
"*  c #221211",
"=  c #241A15",
"-  c #241E1D",
";  c #2A1E1C",
":  c #3C1716",
">  c #3C1816",
",  c #341C1D",
"<  c #3C1A1B",
"1  c #1F2E16",
"2  c #14221C",
"3  c #1C221C",
"4  c #1B2C1E",
"5  c #0D3E14",
"6  c #173714",
"7  c #183114",
"8  c #143D13",
"9  c #183F12",
"0  c #2B2217",
"q  c #2D2817",
"w  c #24231D",
"e  c #2D241C",
"r  c #252818",
"t  c #302412",
"y  c #332D1B",
"u  c #3D2614",
"i  c #3F3113",
"p  c #3C341C",
"a  c #38361C",
"s  c #1F1C20",
"d  c #211F21",
"f  c #2C1E20",
"g  c #1E2320",
"h  c #162820",
"j  c #1B2B22",
"k  c #1F3227",
"l  c #242223",
"z  c #2C2424",
"x  c #252D25",
"c  c #2E2826",
"v  c #272528",
"b  c #292629",
"n  c #272B28",
"m  c #2C2A2C",
"M  c #342626",
"N  c #392F25",
"B  c #342629",
"V  c #3E272A",
"C  c #322A2C",
"Z  c #382D2D",
"A  c #342A26",
"S  c #213226",
"D  c #2C3424",
"F  c #253529",
"G  c #263929",
"H  c #293D2B",
"J  c #2B352D",
"K  c #393320",
"L  c #363E26",
"P  c #33332C",
"I  c #353F28",
"U  c #3A3429",
"Y  c #2E2C31",
"T  c #322D32",
"R  c #392E35",
"E  c #353136",
"W  c #3A3234",
"Q  c #373936",
"!  c #383B31",
"~  c #37323A",
"^  c #3B353B",
"/  c #3E3A3F",
"(  c #461614",
")  c #491514",
"_  c #501614",
"`  c #462913",
"'  c #4B3718",
"]  c #413B1C",
"[  c #4B3F1F",
"{  c #442223",
"}  c #403D20",
"|  c #473728",
" . c #443C29",
".. c #413237",
"X. c #483C36",
"o. c #42353B",
"O. c #43383D",
"+. c #0C4314",
"@. c #0D4B14",
"#. c #144412",
"$. c #124813",
"%. c #194F16",
"&. c #164419",
"*. c #194A1D",
"=. c #1B4113",
"-. c #135213",
";. c #1C5413",
":. c #155811",
">. c #1A5B11",
",. c #264818",
"<. c #2B4A1D",
"1. c #255C14",
"2. c #26501F",
"3. c #2B5E1B",
"4. c #2B5D14",
"5. c #335E14",
"6. c #21640F",
"7. c #256311",
"8. c #2B6912",
"9. c #356416",
"0. c #396416",
"q. c #306912",
"w. c #1A4620",
"e. c #2E442D",
"r. c #3E4726",
"t. c #304B25",
"y. c #30442D",
"u. c #334A2F",
"i. c #2F4630",
"p. c #364134",
"a. c #384332",
"s. c #314930",
"d. c #384F33",
"f. c #3E5637",
"g. c #48401D",
"h. c #53431B",
"j. c #474120",
"k. c #494128",
"l. c #494728",
"z. c #48403A",
"x. c #425C3B",
"c. c #45613C",
"v. c #3E3941",
"b. c #443C44",
"n. c #493C43",
"m. c #473F48",
"M. c #493F49",
"N. c #454745",
"B. c #47414A",
"V. c #4B434B",
"C. c #4E4C46",
"Z. c #50424C",
"A. c #465742",
"S. c #495747",
"D. c #4E4651",
"F. c #524551",
"G. c #574852",
"H. c #5B4953",
"J. c #594959",
"K. c #624651",
"L. c #4E6D42",
"P. c #506C42",
"I. c #697C49",
"U. c #646E54",
"Y. c #83665D",
"T. c #846460",
"R. c #8C7767",
"E. c #83825A",
"W. c #89987F",
"Q. c #A5968C",
"!. c #96A385",
"~. c #B6B59C",
"^. c #D9C2B3",
"/. c #ECEAD9",
"(. c None",
/* pixels */
"(.(.(.(.(.(.(.(.(.(.(.(.(.(.(.(.(.(.(.(.(.(.(.(.(.c E m - (.(.(.(.(.(.(.(.(.(.(.(.(.(.(.(.(.(.(.(.(.",
"(.(.(.(.(.(.(.(.(.(.(.(.(.(.(.(.(.(.(.(.(.(.(.(.M ~ T R Y c (.(.(.(.(.(.(.(.(.(.(.(.(.(.(.(.(.(.(.(.",
"(.(.(.(.(.(.(.(.(.(.(.(.(.(.(.(.(.(.(.(.(.(.(.n.^ C / B.B.b.C (.(.(.(.(.(.(.(.(.(.(.(.(.(.(.(.(.(.(.",
"(.(.(.(.(.(.(.(.(.(.(.(.(.(.(.(.(.(.(.(.(.(.n.V.V.l Y m.m.D.~ ; (.(.(.(.(.(.(.(.(.(.(.(.(.(.(.(.(.(.",
"(.(.(.(.(.(.(.(.(.(.(.(.(.(.(.(.(.(.(.(.(...b.m.T.X.C ~ ^ / b.T (.(.(.(.(.(.(.(.(.(.(.(.(.(.(.(.(.(.",
"(.(.(.(.(.(.(.(.(.(.(.(.(.(.(.(.(.(.(.(.(.C m C Q.^.Y.Y T m ~ Y l (.(.(.(.(.(.(.(.(.(.(.(.(.(.(.(.(.",
"(.(.(.(.(.(.(.(.(.(.(.(.(.(.(.(.(.(.(.(.(.c s C.U./.~.k.B m m m v (.(.(.(.(.(.(.(.(.(.(.(.(.(.(.(.(.",
"(.(.(.(.(.(.(.(.(.(.(.(.(.(.(.(.(.(.(.(.(.; g R.I.!.!.E.B d d m v (.(.(.(.(.(.(.(.(.(.(.(.(.(.(.(.(.",
"(.(.(.(.(.(.(.(.(.(.(.(.(.(.(.(.(.(.(.(.(.(.$ P H e.A.S.3 Y m l c (.(.(.(.(.(.(.(.(.(.(.(.(.(.(.(.(.",
"(.(.(.(.(.(.(.(.(.(.(.(.(.(.9.0.(.(.(.K.(.(.+ O k e.e.j # m v $ (.(.(.(.(.(.(.(.(.(.(.(.(.(.(.(.(.(.",
"(.(.(.(.(.(.(.(.(.(.(.(.(.(.0.(.(.(.(.G.M.(.; + 2 F e.j # $ l ; (.(.H.(.(.(.(.(.(.(.(.(.(.(.(.(.(.(.",
"(.(.(.(.(.(.(.(.(.(.(.(.(.(.(.4.4.(.(.Z.v O.(.(.% O 2 4 g d ; (.(.H.Z.(.(.(.(.(.(.(.(.(.(.(.(.(.(.(.",
"(.(.(.(.(.(.(.0.9.(.(.(.q.7.>.-.;.0.(.Z.$ l b.(.w X # $ C M (.(.G.V.R (.(.(.(.(.(.(.(.(.(.(.(.(.(.(.",
"(.(.(.(.(.(.(.7.>.-.#.;.2.3.8.:.7.8.(.n.E l Y C Y $ @ $ Y C G.Z.b.T (.(.(.(.(.(.(.(.(.(.(.(.(.(.(.(.",
"(.(.(.(.(.(.(.5.;.+.@.*.m <.t.3.6.:.%.! v.$ x F v l d b T R V./ m l (.(.(.(.(.(.(.(.(.(.(.(.(.(.(.(.",
"(.(.(.(.(.(.(.(.(.5 +.*.x J m y.-.@.$.(.W l y.f.a.E Q J b v m m T (.(.(.(.(.(.(.(.(.(.(.(.(.(.(.(.(.",
"(.(.(.(.(.(.(.(.(.5 +.@.8 n Y N.&.+.(.(.B.i.f.L.f.f.c.x.a.n 3 Y m.(.(.(.(.(.(.(.(.(.(.(.(.(.(.(.(.(.",
"(.(.(.(.(.(.(.(.(.+.@.@.@.4 m m.z.=.(.G.b.J s.c.f.s.c.L.f.G $ v b.(.(.(.(.(.(.(.(.(.(.(.(.(.(.(.(.(.",
"(.(.(.(.(.(.(.(.8 @.#.9 +.1 ; Y O.(.(.O.E l j H i.G s.f.e.j O # C (.(.(.(.(.(.(.(.(.(.(.(.(.(.(.(.(.",
"(.(.(.(.(.(.(.(.(.=.(.(.(.(.(.c C d o d d o 3 S H G G G j O o $ l (.(.(.(.(.(.(.(.(.(.(.(.(.(.(.(.(.",
"(.(.(.(.(.(.(.(.(.(.(.(.(.(.(.(.M v $ + * (.$ G s.e.G k O X (.o $ ; (.(.(.(.(.(.(.(.(.(.(.(.(.(.(.(.",
"(.(.(.(.(.(.(.(.(.(.(.(.(.(.(.(.(.- + * (.(.(.k e.s.G h O X (.o o o (.(.(.(.(.(.(.(.(.(.(.(.(.(.(.(.",
"(.(.(.(.(.(.(.(.(.(.(.(.(.(.(.(.(.(.(.(.(.(.+ j e.u.x O + o (.(.o X (.(.(.(.(.(.(.(.(.(.(.(.(.(.(.(.",
"(.(.(.(.(.(.(.(.(.(.(.(.(.(.(.(.(.(.(.q ,.7 X O a p a e l $ o (.o $ (.(.(.(.(.(.(.(.(.(.(.(.(.(.(.(.",
"(.(.(.(.(.(.(.(.(.(.(.(.(.(.(.(.(.(.(.r 1.8 $ $ U h.g.c g # X *   $ C (.(.(.(.(.(.(.(.(.(.(.(.(.(.(.",
"(.(.(.(.(.(.(.(.(.(.(.(.(.(.(.(.(.(.(.& 6 O + z a g.y $ + @ X X @ s R (.(.(.(.(.(.(.(.(.(.(.(.(.(.(.",
"(.(.(.(.(.(.(.(.(.(.(.(.(.(.(.(.(.(.(.(.X # 3 4 x G S S G g X X d m R (.(.(.(.(.(.(.(.(.(.(.(.(.(.(.",
"(.(.(.(.(.(.(.(.(.(.(.(.(.(.(.(.(.(.(.(.2 k y.y.k j h j e.D + X d d l B (.(.(.(.(.(.(.(.(.(.(.(.(.(.",
"(.(.(.(.(.(.(.(.(.(.(.(.(.(.(.(.(.(.(.| ] l.u.e.S 2 # j H y.g X X X @ e (.(.(.(.(.(.(.(.(.(.(.(.(.(.",
"(.(.(.(.(.(.(.(.(.(.(.(.(.(.(.(.(.(.(.M W  .l.t.4 w 2 2 k e.D e = + d (.(.(.(.(.(.(.(.(.(.(.(.(.(.(.",
"(.(.(.(.(.(.(.(.(.(.(.(.(.(.(.(.(.(.(.(.b  .k. .` ` (.r D L j.] + $ T (.(.(.(.(.(.(.(.(.(.(.(.(.(.(.",
"(.(.(.(.(.(.(.(.(.(.(.(.(.(.(.(.(.(.(.(.e  .! w u (.(.' ] p y p @ - ^ (.(.(.(.(.(.(.(.(.(.(.(.(.(.(.",
"(.(.(.(.(.(.(.(.(.(.(.(.(.(.(.(.(.(.(.(.p N v = (.(.(.(.% + w t X v V.(.(.(.(.(.(.(.(.(.(.(.(.(.(.(.",
"(.(.(.(.(.(.(.(.(.(.(.(.(.(.(.(.(.(.(.(.e $ $ (.(.(.(.(.  X o 0 = m F.(.(.(.(.(.(.(.(.(.(.(.(.(.(.(.",
"(.(.(.(.(.(.(.(.(.(.(.(.(.(.(.(.(.(.(.(.m.T X (.(.(.(.(.(.o - N.C m F.(.(.(.(.(.(.(.(.(.(.(.(.(.(.(.",
"(.(.(.(.(.(.(.(.(.(.(.(.(.(.(.(.(.(.(.o.V.Y # (.(.(.(.(.(.X d v.Y m F.(.(.(.(.(.(.(.(.(.(.(.(.(.(.(.",
"(.(.(.(.(.(.(.(.(.(.(.(.(.(.(.(.(.(.(.W C $ X (.(.(.(.(.(.* $ b m m m.(.(.(.(.(.(.(.(.(.(.(.(.(.(.(.",
"(.(.(.(.(.(.(.(.(.(.(.(.(.(.(.(.(.(.(.Z l $ o (.(.(.(.(.(.(.X v ~ C (.(.(.(.(.(.(.(.(.(.(.(.(.(.(.(.",
"(.(.(.(.(.(.(.(.(.(.(.(.(.(.(.(.(.(.(.z d + (.(.(.(.(.(.(.(.(.l C (.(.(.(.(.(.(.(.(.(.(.(.(.(.(.(.(.",
"(.(.(.(.(.(.(.(.(.(.(.(.(.(.(.(.(.(.(.; s X (.(.(.(.(.(.(.(.(.- m (.(.(.(.(.(.(.(.(.(.(.(.(.(.(.(.(.",
"(.(.(.(.(.(.(.(.(.(.(.(.(.(.(.(.(.(.(.w $ o (.(.(.(.(.(.(.(.(.- m (.(.(.(.(.(.(.(.(.(.(.(.(.(.(.(.(.",
"(.(.(.(.(.(.(.(.(.(.(.(.(.(.(.(.(.(.(.W l ; (.(.(.(.(.(.(.(.(.l E (.(.(.(.(.(.(.(.(.(.(.(.(.(.(.(.(.",
"(.(.(.(.(.(.(.(.(.(.(.(.(.(.(.(.(.(.(.^ z (.(.(.(.(.(.(.(.(.(.M M.H.(.(.(.(.(.(.(.(.(.(.(.(.(.(.(.(.",
"(.(.(.(.(.(.(.(.(.(.(.(.(.(.(.(.(.(.J.B.z ( ) ) ) (.(.(.(.(.(.(.v.J.(.(.(.(.(.(.(.(.(.(.(.(.(.(.(.(.",
"(.(.(.(.(.(.(.(.(.(.(.(.(.(.(.(.(.{ D.D.z ( ) ( ) ( ) ) ) ) ) : ^ B...(.(.(.(.(.(.(.(.(.(.(.(.(.(.(.",
"(.(.(.(.(.(.(.(.(.(.(.(.(.(.(.(.( V ^ B.z ( ) ( ) ) ( ) ( ) ) : ^ b.R { (.(.(.(.(.(.(.(.(.(.(.(.(.(.",
"(.(.(.(.(.(.(.(.(.(.(.(.(.(.(.) < R / v., ) ) ( ( ) ( ) ( ( ) > T b.~ V ( (.(.(.(.(.(.(.(.(.(.(.(.(.",
"(.(.(.(.(.(.(.(.(.(.(.(.(.(.(.) > m v.b ( ) ( ( ) ( ( ) ) ( ( ( , ~ ^ f ) (.(.(.(.(.(.(.(.(.(.(.(.(.",
"(.(.(.(.(.(.(.(.(.(.(.(.(.(.(.(.( e z , ) ) ) ) (.(.(.(.) ) ) ) ( f b > (.(.(.(.(.(.(.(.(.(.(.(.(.(.",
"(.(.(.(.(.(.(.(.(.(.(.(.(.(.(.(._ ( > ( ) (.(.(.(.(.(.(.(.(.) ) ) > > (.(.(.(.(.(.(.(.(.(.(.(.(.(.(."
};
