/* XPM */
static char *_b88241010c9421b9d5e45d136ab7ae4GKKqX2GGFPwPk9lx[] = {
/* columns rows colors chars-per-pixel */
"50 50 209 2 ",
"   c None",
".  c #085B36",
"X  c #0A5E39",
"o  c #07643B",
"O  c #0A633D",
"+  c #076F3D",
"@  c #096C3E",
"#  c #06733E",
"$  c #08713E",
"%  c #067B3F",
"&  c #0C6341",
"*  c #076B42",
"=  c #0B6B44",
"-  c #0C6F49",
";  c #116546",
":  c #136949",
">  c #077443",
",  c #097343",
"<  c #067B42",
"1  c #097945",
"2  c #06764A",
"3  c #09744A",
"4  c #067D4D",
"5  c #097B4C",
"6  c #13714E",
"7  c #0E7750",
"8  c #067F50",
"9  c #0D7C53",
"0  c #157353",
"q  c #127C55",
"w  c #0BBC3E",
"e  c #08C43E",
"r  c #078145",
"t  c #098442",
"y  c #0D8C44",
"u  c #07824D",
"i  c #09844C",
"p  c #0B8C4B",
"a  c #0F9147",
"s  c #0E924C",
"d  c #119345",
"f  c #149C46",
"g  c #11954C",
"h  c #139A4B",
"j  c #199E49",
"k  c #068452",
"l  c #0A8352",
"z  c #068955",
"x  c #0A8B54",
"c  c #0E8659",
"v  c #068C5A",
"b  c #0C8E5A",
"n  c #0D8E5D",
"m  c #0B8C5A",
"M  c #10845A",
"N  c #0D9353",
"B  c #0E9956",
"V  c #03935F",
"C  c #05925E",
"Z  c #07945E",
"A  c #0D915E",
"S  c #0B935C",
"D  c #0E9A5C",
"F  c #109652",
"G  c #139B54",
"H  c #139D5A",
"J  c #189D54",
"K  c #289B4C",
"L  c #36974F",
"P  c #3E8E54",
"I  c #379652",
"U  c #3D9454",
"Y  c #339C51",
"T  c #399852",
"R  c #16A146",
"E  c #1AA546",
"W  c #1DAB46",
"Q  c #17A14A",
"!  c #1AA54C",
"~  c #1DAA4B",
"^  c #0FBC41",
"/  c #14B542",
"(  c #1AB145",
")  c #15BC44",
"_  c #1BBC46",
"`  c #1FBD49",
"'  c #16A154",
"]  c #1BA655",
"[  c #1EAB53",
"{  c #15A25C",
"}  c #19A55C",
"|  c #1DA95C",
" . c #2AA34C",
".. c #21AD4A",
"X. c #2CAC4D",
"o. c #25B24B",
"O. c #29B64C",
"+. c #24BD4A",
"@. c #2CBC4E",
"#. c #38B64E",
"$. c #33BB4F",
"%. c #3ABE4E",
"&. c #21AE54",
"*. c #22AE5B",
"=. c #28AA5A",
"-. c #33A552",
";. c #34AA57",
":. c #25B354",
">. c #28B753",
",. c #2CBB53",
"<. c #25B25C",
"1. c #29B75C",
"2. c #2CBA5C",
"3. c #26BF53",
"4. c #33BD52",
"5. c #39BB51",
"6. c #30BD59",
"7. c #059661",
"8. c #059662",
"9. c #0D9360",
"0. c #0B9662",
"q. c #0E9563",
"w. c #089560",
"e. c #069965",
"r. c #0D9B64",
"t. c #0D9E68",
"y. c #069D68",
"u. c #139566",
"i. c #119B65",
"p. c #169C6C",
"a. c #0AA169",
"s. c #0EA66D",
"d. c #0FA16B",
"f. c #14A461",
"g. c #1CAB63",
"h. c #12A36F",
"j. c #16A865",
"k. c #1FB065",
"l. c #1EB06A",
"z. c #11A771",
"x. c #23AE61",
"c. c #24B263",
"v. c #29B664",
"b. c #2CBA64",
"n. c #23B46B",
"m. c #2EBD6A",
"M. c #27B86C",
"N. c #32BE66",
"B. c #35B56B",
"V. c #488B5A",
"C. c #439457",
"Z. c #49BC4F",
"A. c #45BB52",
"S. c #48B853",
"D. c #0DC542",
"F. c #0FC844",
"G. c #14C445",
"H. c #1AC347",
"J. c #15C847",
"K. c #19C847",
"L. c #1DC348",
"P. c #17CB48",
"I. c #1EC94A",
"U. c #23C34B",
"Y. c #2AC44D",
"T. c #23CA4C",
"R. c #2DCA4F",
"E. c #31C34C",
"W. c #3CC44D",
"Q. c #26C650",
"!. c #2DC453",
"~. c #27C851",
"^. c #2DCB52",
"/. c #33C452",
"(. c #39C654",
"). c #32CB52",
"_. c #3CCB55",
"`. c #34C15A",
"'. c #39C55A",
"]. c #34CB5B",
"[. c #3CCB5A",
"{. c #38D259",
"}. c #33C462",
"|. c #3ECC61",
" X c #35C36B",
".X c #3AC66C",
"XX c #3CC96B",
"oX c #3BD261",
"OX c #3BC773",
"+X c #3ECA74",
"@X c #37C471",
"#X c #46C74F",
"$X c #42CC56",
"%X c #42CE5A",
"&X c #47C555",
"*X c #41D057",
"=X c #45D159",
"-X c #4AD35B",
";X c #50D75E",
":X c #43CE63",
">X c #42CD6B",
",X c #47D161",
"<X c #4BD366",
"1X c #42D269",
"2X c #4BD36A",
"3X c #54D962",
"4X c #43CD76",
"5X c #42CD79",
"6X c #4DDA70",
/* pixels */
"                                                                                                    ",
"                                                                                                    ",
"                                                                                                    ",
"                                                                                                    ",
"                =                                                                                   ",
"                5                             0                                                     ",
"                v       p.                    0                                                     ",
"                7.e.; n a.        :                                   6                             ",
"                e.7.& k y.      6 & &                                 & &                           ",
"                e.8.O k w.    M 5 X O             ; ;           p.      &                           ",
"                C 8.* z k &   9 9 & &               & q       q.d.9     O 7 &       * m             ",
"                4 V * z k O O 9 l = = 9.d.h.u.    & & l =     y.t.3     & 2 O     w.2 v & -         ",
"                * V 2 v 8 X O l 5 O 3 a.a.9.n M u.& * l *     y.t.q     = 5 O 3 C 7.2 k X =         ",
"                * V 2 v k O O l 3 O 5 s.0.x n m n O = n = 3 d.i.i.c u.= = 5 O k 7.v 4 4 . *         ",
"                O V 2 v k O O l 3 O l s.l l 9.m n @ 3 m * 5 z.n q.c 9.* = 4 O v C k 4 4 . 3         ",
"              X O C 5 v l O @ x 3 @ l s.5 l q.m b @ , m @ 4 h.5 A x S @ 3 4 @ S l k k 4 O 5         ",
"              X o Z 4 v k @ @ v , @ x t., i r.b b @ 1 x @ l t., A b A @ , i @ S 5 l k 4 O 4         ",
"                @ Z i v k @ @ v 1 @ x S # i r.b A + 1 b + l S # A b A $ 5 i > S , l z u o 4         ",
"                @ 9.i v z @ > S 1 $ x l # i r.x A # 5 x # x x # A b A > 5 i > x > x x u @ 4         ",
"                @ Z i x z + $ S 1 # x 4 # i r.x S # i x # x i # S b S > i i > u # x x k @ u         ",
"                @ S u x C # # S 1 # i < % i f.x D < i N % i 1 % B b S < i i < 1 # x x k $ u         ",
"                > 9.u l S < < S r < i < % p f.p H t p N t t t < H N D r i i < < # x x z > u         ",
"                , 0.x i D r < B i t t t t s g.p { t p G t t t t H F B p p p t < % N x x < i         ",
"                < f.N r D p t G p p t t t g g.p { N y H s p t t } H F N p F p t t H N N t p         ",
"                < f.H t D B t G G s y y y h n.g } } s } H s y y | } G f.g { s t t H G D B N         ",
"              1 t f.f.p f.j.G g g.{ y y y J n.H g.n.} | c.g d d | } ' n.} g.H y y } g G j.F         ",
"                t j.G a H l.l.h c.| d d d ] c.f ] M.v.] c.f f f c.Q h c.c.' J d d | g h } G         ",
"                y g.h y G g.M.] ' ] f f f *.<.f ! <.m.] ] R f Q v.Q R [ c.! Q f h *.f f ' J         ",
"                h k.f d h ] *.<.f ] R R R v.*.E ~ &.v.&.[ ~ E &.b.! ! [ <.[ [ ! [ *.f R Q ] j       ",
"                ] g.f f h [ ! v.! &.! E [ m.&.~ ~ &.:.2.<.b.~ b.1.~ ~ &.:.1.m.:.1.[ E ! ! *.=.      ",
"                x.| f f R [ ! b.&.b.b.~ 2.m.....o.:.:.N.N.OX1. X:...o.:.:.N.@Xm.m.~ W ~ ~ 1.B.      ",
"                c.! R R E [ ~ b.1. XOX1. X2.o.o.o.>.>. XOX5X.X Xo.o.o.>.>.OXOX Xb.o.o.o.W 1.    P   ",
"              B.*.E E W W :...2. X+X5X.X.X,.O.O.O.,.,.XX5X5X4X`.O.O.@.6.,.XX}.}.,.O.O.O.O.2.;.U I L ",
"                &.W W W o.>.o.2.4X5X5X5X}.@.@.$.4.`.4.>X>XXX4X/.@.@.@.,.@.T.,.!.@.$.@.@.O.6.-. .(   ",
"                ....o.o.o.,.O.3.+XXXXX4X`./././.(.[./.>X|.[.>X/./.U.Y.@.+.K.J.+./.(././.@.@.-.T ^   ",
"                o.o.o.O.@.`.@.,.XX!.'.>X(.(.(.(.[.[.(.:X%X[.:XY.Y.R.Y./.U.K.F.` (.(.1X|.+._ ..  W   ",
"        /       O.O.@.@./.'.E./.>XY.!.:X_._.$X$X%X).).[.[.$X(.U././.T./.U.K.F.L.(.).1X!.` +. .Y j   ",
"        w   U X.+._ U./.(.[./.(.:X).!.:X_._.%X<X[.T.Y.T.(.=X%X/.[.~.H.Y.U.J.L.U././.^.) +.+. .I K   ",
"        /     -._ ) L.(.%X%X$X%X,X_.).-X=X_.[.6XoXT./.R.(.-X;XR.T.H.) L.L.G.Y.+._.(.U.) ) U.        ",
"         .    5.) _ U.|.2X%X%X%X-X_.).-X=X_.).{.].I.U.U.^.3X-XT.T.G.L._ J.G._ H.-X,X+.) ) 5.C.  (   ",
"              4.) Y.Q.1X<X-X-X=X*XT.)._.(.R.^.^.I.T.H.U.).-X{.T.^.G.K.H.F.L.H.Y.$X&X$.X...          ",
"       .T      .^ ].~.].[.-X$X_._.K.Y.%X-XR.L.K.I.I.L.U.).;X).L.I.G.K.L.U.@.` O.#.                  ",
"    V.W W     ( D.K.J.J.).-X(.R.R.L.).3X=XU.U.T.^.U.L.U.Y.#XW.@.Y.Y.Y.                              ",
"         .Y   w e K.F.P.T.-X=XR.).Y.=X3X^.T.Y.R.W.E.Y.@.%.Z.                                        ",
"          ../ ) ) U.L.].).=X-X(.E.W.#X#XW.%.5.5.                                                    ",
"  W K     W w ) G.@.$./.A.A.$.A.A.S.                                                                ",
"  E  .    Y ( X.) X.                                                                                ",
"  P C.                                                                                              ",
"                                                                                                    ",
"                                                                                                    "
};
